{"title":"OSU_VS_Purdue_Second_Half_720p_2-20-2011_TTL","uid":6191820,"size":1570673966,"categoryP":"video","categoryS":"hd___tv_shows","magnet":"?xt=urn:btih:27200510e6a11a98b72d2a4309271c68529d3e5e&amp;dn=OSU_VS_Purdue_Second_Half_720p_2-20-2011_TTL&amp;tr=udp%3A%2F%2Ftracker.openbittorrent.com%3A80&amp;tr=udp%3A%2F%2Fopen.demonii.com%3A1337&amp;tr=udp%3A%2F%2Ftracker.coppersurfer.tk%3A6969&amp;tr=udp%3A%2F%2Fexodus.desync.com%3A6969","seeders":0,"leechers":1,"uploader":"thetorrentlord","files":2,"time":1298318480,"description":"This is from an HD broadcast. Enjoy and please \n\nshare.\t\t\t\t\t\t\t\n\n\t\t\t\t\t\t\t\n\n\t\t\t\t\t\t\t\n\n\t\t\t\t\t\t\t\n\n\t\t\t\t\t\t\t\n\n\t\t\t\t\t\t\t\n\n\t\t\t\t\t\t\t\n\n\t\t\t\t\t\t\t\n\n**************************************************\n\n**************************************************\n\n**************************************************\n\n**************************************************\n\n****\t\t\t\t\t\t\t\n\n\t\t\t\t\t\t\t\n\n\t\t\t\t\t\t\t\n\n\t\t\t\t\t\t\t\n\n\t\t\t\t\t\t\t\n\n\t\t\t\t\t\t\t\n\n\t\t\t\t\t\t\t\n\n\t\t\t\t\t\t\t\n\n\t\t\t\t         \n\nOSU_VS_Purdue_Second_Half_720p_2-20-2011_TTL.avi\nFormat                           : AVI\nFormat/Info                      : Audio Video \n\nInterleave\nFormat profile                   : OpenDML\nFile size                        : 1.46 GiB\nDuration                         : 1h 33mn\nOverall bit rate                 : 2 248 Kbps\nMovie name                       : \n\nOSU_VS_Purdue_Second_Half_720p_2-20-2011_TTL.mpg\nDirector                         : \n\ncreated.with.SUPER(C).v2010.bld.37\nWriting application              : SUPER(C)   \n\nVideo\nID                               : 0\nFormat                           : MPEG-4 Visual\nFormat profile                   : Simple@L3\nFormat settings, BVOP            : No\nFormat settings, QPel            : No\nFormat settings, GMC             : No warppoints\nFormat settings, Matrix          : Default (H.263)\nCodec ID                         : XVID\nCodec ID/Hint                    : XviD\nDuration                         : 46mn 34s\nBit rate                         : 4 369 Kbps\nWidth                            : 1 280 pixels\nHeight                           : 720 pixels\nDisplay aspect ratio             : 16:9\nFrame rate                       : 29.970 fps\nColor space                      : YUV\nChroma subsampling               : 4:2:0\nBit depth                        : 8 bits\nScan type                        : Progressive\nBits/(Pixel*Frame)               : 0.158\nStream size                      : 1.42 GiB (97%)\nWriting library                  : XviD 1.1.2 (UTC \n\n2006-11-01)\n\nAudio\nID                               : 1\nFormat                           : MPEG Audio\nFormat version                   : Version 2\nFormat profile                   : Layer 3\nMode                             : Joint stereo\nMode extension                   : MS Stereo\nCodec ID                         : 55\nCodec ID/Hint                    : MP3\nDuration                         : 1h 33mn\nBit rate mode                    : Constant\nBit rate                         : 112 Kbps\nChannel(s)                       : 2 channels\nSampling rate                    : 22.05 KHz\nStream size                      : 37.3 MiB (2%)\nAlignment                        : Aligned on \n\ninterleaves\nInterleave, duration             : 26 ms (0.78 \n\nvideo frame)\nInterleave, preload duration     : 26 ms\nWriting library                  : LAME3.98\n\n","torrent":{"xt":"urn:btih:27200510e6a11a98b72d2a4309271c68529d3e5e","amp;dn":"OSU_VS_Purdue_Second_Half_720p_2-20-2011_TTL","amp;tr":["udp%3A%2F%2Ftracker.openbittorrent.com%3A80","udp%3A%2F%2Fopen.demonii.com%3A1337","udp%3A%2F%2Ftracker.coppersurfer.tk%3A6969","udp%3A%2F%2Fexodus.desync.com%3A6969"],"infoHash":"27200510e6a11a98b72d2a4309271c68529d3e5e","infoHashBuffer":{"type":"Buffer","data":[39,32,5,16,230,161,26,152,183,45,42,67,9,39,28,104,82,157,62,94]},"announce":[],"urlList":[]}}